<svg width="80" height="80" viewBox="0 0 80 80" fill="none" xmlns="http://www.w3.org/2000/svg">
<path d="M77.1714 27.4032C81.9566 22.618 79.7745 17.0289 77.1714 14.3109L65.6869 2.82644C60.8634 -1.95875 55.3126 0.223295 52.5946 2.82644L46.0868 9.37258H36.1718C28.8984 9.37258 24.6874 13.2007 22.5436 17.6031L5.54662 34.6001V49.9127L2.82864 52.5924C-1.95656 57.4159 0.225492 62.9667 2.82864 65.6847L14.3131 77.1692C16.3803 79.2364 18.6006 80.002 20.7061 80.002C23.4241 80.002 25.9124 78.6622 27.4054 77.1692L37.7414 66.7949H51.4845C57.9923 66.7949 61.2845 62.737 62.4713 58.7558C66.7971 57.6073 69.1705 54.3151 70.1276 51.0995C76.0612 49.5682 78.2815 43.9408 78.2815 39.9978V28.5133H76.0229L77.1714 27.4032ZM70.6252 39.9978C70.6252 41.7205 69.8979 43.826 66.7971 43.826H62.9689V47.6541C62.9689 49.3768 62.2416 51.4823 59.1408 51.4823H55.3126V55.3104C55.3126 57.0331 54.5853 59.1386 51.4845 59.1386H34.6023L22.046 71.6949C20.8592 72.8051 20.1702 72.1543 19.7491 71.7332L8.30289 60.3253C7.19273 59.1386 7.84352 58.4495 8.26461 58.0284L13.2029 53.0518V37.7392L20.8592 30.0829V36.1697C20.8592 40.8017 23.9218 47.6541 32.3437 47.6541C40.7656 47.6541 43.8282 40.8017 43.8282 36.1697H70.6252V39.9978ZM71.7354 21.9672L65.2275 28.5133H36.1718V36.1697C36.1718 37.8923 35.4445 39.9978 32.3437 39.9978C29.2429 39.9978 28.5155 37.8923 28.5155 36.1697V24.6852C28.5155 22.9242 29.1663 17.0289 36.1718 17.0289H49.2258L57.954 8.3007C59.1408 7.19053 59.8298 7.84132 60.2509 8.26242L71.6971 19.6703C72.8073 20.857 72.1565 21.5461 71.7354 21.9672Z" fill="#252525"/>
</svg>
