<svg width="80" height="77" viewBox="0 0 80 77" fill="none" xmlns="http://www.w3.org/2000/svg">
<path d="M36.7968 21.8359C38.2218 19.2747 38.9343 17.9998 39.9992 17.9998C41.0642 17.9998 41.7767 19.2747 43.2016 21.8359L43.5691 22.4959C43.9741 23.2234 44.1766 23.5833 44.4916 23.8233C44.8103 24.0633 45.204 24.1533 45.9915 24.3296L46.704 24.4946C49.4714 25.1208 50.8551 25.432 51.1851 26.4895C51.5151 27.547 50.5701 28.6532 48.6839 30.8581L48.1964 31.4281C47.6602 32.0544 47.3902 32.3656 47.2702 32.7556C47.1502 33.1456 47.1915 33.5618 47.2702 34.398L47.3452 35.1593C47.6302 38.1029 47.7727 39.5766 46.914 40.2291C46.0515 40.8816 44.7541 40.2854 42.1629 39.0929L41.4954 38.7854C40.7567 38.4479 40.3892 38.2792 39.9992 38.2792C39.6092 38.2792 39.2417 38.4479 38.503 38.7854L37.8355 39.0929C35.2444 40.2891 33.9469 40.8816 33.0844 40.2291C32.222 39.5766 32.3682 38.1029 32.6532 35.1593L32.7282 34.398C32.807 33.5618 32.8482 33.1456 32.7282 32.7556C32.6082 32.3656 32.3382 32.0544 31.802 31.4281L31.3145 30.8581C29.4283 28.6532 28.4833 27.5507 28.8133 26.4895C29.1433 25.432 30.527 25.1208 33.2944 24.4946L34.0069 24.3296C34.7944 24.1533 35.1881 24.0671 35.5069 23.8233C35.8219 23.5833 36.0243 23.2234 36.4293 22.4959L36.7968 21.8359Z" stroke="#252525" stroke-width="5"/>
<path d="M66.2488 29.2493C66.2488 32.6964 65.5698 36.1097 64.2507 39.2944C62.9315 42.4791 60.998 45.3728 58.5606 47.8103C56.1231 50.2478 53.2294 52.1813 50.0447 53.5004C46.86 54.8196 43.4467 55.4985 39.9996 55.4985C36.5525 55.4985 33.1392 54.8196 29.9545 53.5004C26.7698 52.1813 23.8761 50.2478 21.4387 47.8103C19.0012 45.3728 17.0677 42.4791 15.7486 39.2944C14.4294 36.1097 13.7505 32.6964 13.7505 29.2493C13.7505 22.2875 16.516 15.6109 21.4387 10.6882C26.3613 5.76554 33.0379 3 39.9996 3C46.9613 3 53.6379 5.76554 58.5606 10.6882C63.4832 15.6109 66.2488 22.2875 66.2488 29.2493Z" stroke="#252525" stroke-width="5"/>
<path d="M15.4608 40.4985L6.22111 50.0645C4.19617 52.1607 3.18371 53.2107 2.83122 54.0994C2.03249 56.1206 2.71872 58.3668 4.45491 59.4318C5.21989 59.8967 6.59609 60.043 9.3485 60.3355C10.9047 60.5005 11.6809 60.5792 12.3297 60.8305C13.0554 61.111 13.7113 61.5461 14.252 62.1056C14.7927 62.6651 15.2052 63.3355 15.4608 64.0704C15.7008 64.7454 15.7795 65.5478 15.9408 67.1603C16.2183 70.0102 16.3608 71.4352 16.8108 72.2226C17.8382 74.0226 20.0094 74.7276 21.9593 73.9026C22.8218 73.5426 23.8343 72.4964 25.8592 70.3964L40 55.7531L54.1408 70.3964C56.1657 72.4964 57.1782 73.5426 58.0407 73.9026C59.9906 74.7276 62.1618 74.0226 63.1892 72.2226C63.6392 71.4352 63.778 70.0102 64.0592 67.1603C64.2205 65.5478 64.2992 64.7454 64.5392 64.0704C65.0792 62.5629 66.2116 61.3892 67.6703 60.8305C68.3191 60.5792 69.0953 60.5005 70.6515 60.3355C73.4039 60.043 74.7801 59.8967 75.5451 59.4318C77.2813 58.3668 77.9675 56.1206 77.1688 54.0994C76.8163 53.2107 75.8038 52.1607 73.7789 50.0645L64.5392 40.4985" stroke="#252525" stroke-width="5"/>
</svg>
